<svg width="1100" height="1100" viewBox="0 0 1100 1100" fill="none" xmlns="http://www.w3.org/2000/svg">
<g filter="url(#filter1_ddddi_1041_19498)">
<path d="M404 725.951L404 412.76C404 410.988 406.134 410.092 407.4 411.332L453.4 456.412C453.784 456.788 454 457.303 454 457.84L454 680.169C454 680.701 453.788 681.211 453.411 681.586L407.411 727.369C406.15 728.624 404 727.731 404 725.951Z" fill="#60FDF9"/>
</g>
<g filter="url(#filter2_ddddi_1041_19498)">
<path d="M557.812 259H871.003C872.775 259 873.672 261.134 872.432 262.4L827.352 308.4C826.976 308.784 826.461 309 825.923 309H603.595C603.063 309 602.553 308.788 602.177 308.411L556.395 262.411C555.139 261.15 556.033 259 557.812 259Z" fill="#60FDF9"/>
</g>
<g filter="url(#filter3_ddddi_1041_19498)">
<path d="M870.951 879H557.76C555.988 879 555.092 876.866 556.332 875.6L601.412 829.6C601.788 829.216 602.303 829 602.84 829H825.169C825.701 829 826.211 829.212 826.586 829.589L872.369 875.589C873.624 876.85 872.731 879 870.951 879Z" fill="#60FDF9"/>
</g>
<g filter="url(#filter4_ddddi_1041_19498)">
<path d="M1024 412.812V726.003C1024 727.775 1021.87 728.672 1020.6 727.432L974.6 682.352C974.216 681.976 974 681.461 974 680.923V458.595C974 458.063 974.212 457.553 974.589 457.177L1020.59 411.395C1021.85 410.139 1024 411.033 1024 412.812Z" fill="#60FDF9"/>
</g>
<rect x="631" y="482" width="166" height="166" rx="80" stroke="url(#paint1_linear_1041_19498)" stroke-width="40"/>
<circle cx="714" cy="565" r="32" fill="#5EFDF9"/>
<g filter="url(#filter5_ddddi_1041_19498)">
<path d="M612.586 481.586L398.914 267.914C398.133 267.133 396.867 267.133 396.086 267.914L342.414 321.586C341.633 322.367 341.633 323.633 342.414 324.414L556.086 538.086C556.867 538.867 558.133 538.867 558.914 538.086L612.586 484.414C613.367 483.633 613.367 482.367 612.586 481.586Z" fill="#60FDF9"/>
<path d="M682.586 411.086L468.914 197.414C468.133 196.633 466.867 196.633 466.086 197.414L412.414 251.086C411.633 251.867 411.633 253.133 412.414 253.914L626.086 467.586C626.867 468.367 628.133 468.367 628.914 467.586L682.586 413.914C683.367 413.133 683.367 411.867 682.586 411.086Z" fill="#60FDF9"/>
</g>
<g filter="url(#filter6_ddddi_1041_19498)">
<g filter="url(#filter7_d_1041_19498)">
<path d="M1019.59 883.586L805.914 669.914C805.133 669.133 803.867 669.133 803.086 669.914L749.414 723.586C748.633 724.367 748.633 725.633 749.414 726.414L963.086 940.086C963.867 940.867 965.133 940.867 965.914 940.086L1019.59 886.414C1020.37 885.633 1020.37 884.367 1019.59 883.586Z" fill="#60FDF9"/>
</g>
<path d="M1089.59 813.086L875.914 599.414C875.133 598.633 873.867 598.633 873.086 599.414L819.414 653.086C818.633 653.867 818.633 655.133 819.414 655.914L1033.09 869.586C1033.87 870.367 1035.13 870.367 1035.91 869.586L1089.59 815.914C1090.37 815.133 1090.37 813.867 1089.59 813.086Z" fill="#60FDF9"/>
</g>
<g filter="url(#filter8_ddddi_1041_19498)">
<path d="M959.086 198.414L745.414 412.086C744.633 412.867 744.633 414.133 745.414 414.914L799.086 468.586C799.867 469.367 801.133 469.367 801.914 468.586L1015.59 254.914C1016.37 254.133 1016.37 252.867 1015.59 252.086L961.914 198.414C961.133 197.633 959.867 197.633 959.086 198.414Z" fill="#60FDF9"/>
<path d="M1029.09 268.414L815.414 482.086C814.633 482.867 814.633 484.133 815.414 484.914L869.086 538.586C869.867 539.367 871.133 539.367 871.914 538.586L1085.59 324.914C1086.37 324.133 1086.37 322.867 1085.59 322.086L1031.91 268.414C1031.13 267.633 1029.87 267.633 1029.09 268.414Z" fill="#60FDF9"/>
</g>
<g filter="url(#filter9_ddddi_1041_19498)">
<path d="M556.086 599.414L342.414 813.086C341.633 813.867 341.633 815.133 342.414 815.914L396.086 869.586C396.867 870.367 398.133 870.367 398.914 869.586L612.586 655.914C613.367 655.133 613.367 653.867 612.586 653.086L558.914 599.414C558.133 598.633 556.867 598.633 556.086 599.414Z" fill="#60FDF9"/>
<path d="M626.086 669.414L412.414 883.086C411.633 883.867 411.633 885.133 412.414 885.914L466.086 939.586C466.867 940.367 468.133 940.367 468.914 939.586L682.586 725.914C683.367 725.133 683.367 723.867 682.586 723.086L628.914 669.414C628.133 668.633 626.867 668.633 626.086 669.414Z" fill="url(#paint2_linear_1041_19498)"/>
</g>
<defs>
<linearGradient id="paint1_linear_1041_19498" x1="752.625" y1="473.755" x2="654.663" y2="638.891" gradientUnits="userSpaceOnUse">
<stop offset="0.53" stop-color="white"/>
<stop offset="1" stop-color="#999999"/>
</linearGradient>
<linearGradient id="paint2_linear_1041_19498" x1="411" y1="867.5" x2="618" y2="668" gradientUnits="userSpaceOnUse">
<stop offset="0.555" stop-color="#60FDF9"/>
</linearGradient>
</defs>
</svg>
