<svg width="48" height="48" viewBox="0 0 48 48" fill="none" xmlns="http://www.w3.org/2000/svg">
<path d="M24 48C37.2548 48 48 37.2548 48 24C48 10.7452 37.2548 0 24 0C10.7452 0 0 10.7452 0 24C0 37.2548 10.7452 48 24 48Z" fill="white"/>
<path d="M27.9157 22.5471L30.4681 18.2164L37.3476 28.9315L37.3508 30.9877L37.3284 16.8376C37.3121 16.4917 37.1284 16.1752 36.8354 15.9886L24.4497 8.86421C24.16 8.72185 23.7926 8.72336 23.5034 8.86864C23.4644 8.88826 23.4276 8.90951 23.3925 8.9327L23.3494 8.95988L11.3271 15.9267L11.2804 15.9479C11.2204 15.9755 11.1598 16.0105 11.1029 16.0513C10.875 16.2148 10.7236 16.4565 10.6746 16.7277C10.6673 16.7687 10.6619 16.8106 10.6593 16.8528L10.6781 28.3838L17.0861 18.4518C17.8928 17.1348 19.6506 16.7106 21.2824 16.7337L23.1975 16.7843L11.9134 34.8808L13.2436 35.6467L24.663 16.8026L29.7103 16.7843L18.3204 36.1039L23.0668 38.8339L23.6339 39.16C23.8738 39.2575 24.1566 39.2624 24.3985 39.1751L36.9582 31.8966L34.557 33.288L27.9157 22.5471ZM28.8896 36.5724L24.0955 29.0483L27.0219 24.0824L33.3179 34.006L28.8896 36.5724Z" fill="#2D374B"/>
<path d="M24.0955 29.0481L28.8895 36.5722L33.318 34.0058L27.022 24.0823L24.0955 29.0481Z" fill="#28A0F0"/>
<path d="M37.3508 30.9876L37.3476 28.9314L30.4681 18.2163L27.9157 22.5471L34.5569 33.288L36.9582 31.8965C37.1938 31.7053 37.3362 31.4246 37.3512 31.1216L37.3508 30.9876Z" fill="#28A0F0"/>
<path d="M8.52233 32.927L11.9133 34.8809L23.1974 16.7844L21.2822 16.7338C19.6505 16.7107 17.8928 17.1349 17.086 18.4519L10.678 28.3839L8.52222 31.6962V32.927H8.52233Z" fill="white"/>
<path d="M29.7102 16.7842L24.663 16.8025L13.2436 35.6466L17.235 37.9447L18.3204 36.1038L29.7102 16.7842Z" fill="white"/>
<path d="M39.4778 16.7583C39.4356 15.7027 38.8641 14.7363 37.9688 14.1738L25.4208 6.95777C24.5352 6.5118 23.4289 6.51126 22.5419 6.95745C22.437 7.0103 10.3391 14.0266 10.3391 14.0266C10.1718 14.1069 10.0105 14.2026 9.85876 14.3111C9.05956 14.8839 8.57238 15.7739 8.52234 16.7518V31.6962L10.6781 28.3839L10.6593 16.8529C10.6618 16.8107 10.6671 16.7693 10.6746 16.7283C10.7232 16.4569 10.8747 16.2149 11.1029 16.0514C11.1598 16.0106 23.4642 8.88836 23.5034 8.86873C23.7927 8.72345 24.1601 8.72194 24.4497 8.86431L36.8354 15.9887C37.1284 16.1753 37.3121 16.4918 37.3284 16.8377V31.1218C37.3134 31.4247 37.1937 31.7054 36.9581 31.8967L34.5568 33.2881L33.3179 34.0061L28.8894 36.5725L24.3984 39.1752C24.1565 39.2626 23.8737 39.2577 23.6338 39.1601L18.3202 36.104L17.2348 37.9448L22.0099 40.6941C22.1678 40.7839 22.3086 40.8635 22.424 40.9284C22.6028 41.0287 22.7246 41.0957 22.7676 41.1165C23.107 41.2813 23.5953 41.3773 24.0353 41.3773C24.4388 41.3773 24.8322 41.3032 25.2045 41.1574L38.2489 33.6029C38.9976 33.0229 39.4381 32.1481 39.4778 31.2004V16.7583Z" fill="#96BEDC"/>
</svg>
