<svg width="48" height="48" viewBox="0 0 48 48" fill="none" xmlns="http://www.w3.org/2000/svg">
<path d="M24 48C37.2548 48 48 37.2548 48 24C48 10.7452 37.2548 0 24 0C10.7452 0 0 10.7452 0 24C0 37.2548 10.7452 48 24 48Z" fill="#F3BA2F"/>
<path fill-rule="evenodd" clip-rule="evenodd" d="M17.6238 21.7288L24.0859 15.4305L30.5514 21.7321L34.3115 18.0672L24.0859 8.1001L13.8637 18.0638L17.6238 21.7288ZM15.23 23.8388L11.6151 20.2538L8 23.8389L11.6149 27.424L15.23 23.8388ZM24.0877 32.5806L17.628 26.2822L13.8637 29.9423L13.869 29.9474L24.0877 39.9111L34.3097 29.9441L34.3115 29.9421L30.5507 26.2791L24.0877 32.5806ZM36.3849 27.4257L40 23.8405L36.3851 20.2555L32.77 23.8406L36.3849 27.4257ZM27.4951 24.0005H27.4937L27.4968 24.0021L27.4951 24.004L24.0888 27.4102L20.6855 24.007L20.6808 24.0021L20.6855 23.9974L21.2822 23.4008L21.5712 23.1115H21.5715L24.0888 20.5942L27.4951 24.0005Z" fill="white"/>
</svg>
