<svg width="24" height="24" viewBox="0 0 24 24" fill="none" xmlns="http://www.w3.org/2000/svg">
<path d="M19.189 5.19933C17.8297 4.56332 16.3762 4.10109 14.8566 3.83789C14.6699 4.1753 14.4519 4.62912 14.3016 4.99014C12.6862 4.74721 11.0857 4.74721 9.50004 4.99014C9.34974 4.62912 9.12676 4.1753 8.93847 3.83789C7.41723 4.10109 5.96206 4.56501 4.60269 5.2027C1.86084 9.346 1.11756 13.3864 1.4892 17.3694C3.30774 18.7275 5.07013 19.5524 6.80278 20.0923C7.23058 19.5035 7.61212 18.8776 7.9408 18.218C7.31481 17.9801 6.71524 17.6866 6.14871 17.3458C6.29901 17.2345 6.44602 17.118 6.58806 16.9983C10.0434 18.6144 13.7978 18.6144 17.2119 16.9983C17.3556 17.118 17.5026 17.2345 17.6513 17.3458C17.0831 17.6883 16.4819 17.9818 15.8559 18.2197C16.1845 18.8776 16.5644 19.5052 16.9939 20.0939C18.7282 19.5541 20.4922 18.7292 22.3108 17.3694C22.7468 12.7521 21.5659 8.74879 19.189 5.19933ZM8.41155 14.9199C7.37428 14.9199 6.52363 13.9515 6.52363 12.7723C6.52363 11.5931 7.35612 10.6231 8.41155 10.6231C9.46702 10.6231 10.3176 11.5914 10.2995 12.7723C10.3011 13.9515 9.46702 14.9199 8.41155 14.9199ZM15.3884 14.9199C14.3512 14.9199 13.5005 13.9515 13.5005 12.7723C13.5005 11.5931 14.333 10.6231 15.3884 10.6231C16.4439 10.6231 17.2945 11.5914 17.2763 12.7723C17.2763 13.9515 16.4439 14.9199 15.3884 14.9199Z" fill="#5865F2"/>
</svg>
