<svg width="48" height="48" viewBox="0 0 48 48" fill="none" xmlns="http://www.w3.org/2000/svg">
<path d="M24 48C37.2548 48 48 37.2548 48 24C48 10.7452 37.2548 0 24 0C10.7452 0 0 10.7452 0 24C0 37.2548 10.7452 48 24 48Z" fill="#FF0420"/>
<path d="M17.0048 30.3787C15.5757 30.3787 14.4049 30.0424 13.4922 29.3699C12.5916 28.6854 12.1412 27.7128 12.1412 26.4518C12.1412 26.1876 12.1713 25.8633 12.2313 25.479C12.3875 24.6145 12.6096 23.5756 12.8978 22.3628C13.7144 19.0604 15.822 17.4092 19.2205 17.4092C20.1451 17.4092 20.9737 17.5653 21.7063 17.8775C22.4389 18.1777 23.0153 18.634 23.4355 19.2465C23.8558 19.8469 24.0661 20.5675 24.0661 21.4081C24.0661 21.6603 24.036 21.9785 23.9759 22.3628C23.7958 23.4315 23.5796 24.4704 23.3274 25.479C22.9072 27.1243 22.1806 28.3552 21.1479 29.1718C20.1151 29.9763 18.7341 30.3787 17.0048 30.3787ZM17.257 27.7848C17.9296 27.7848 18.4999 27.5866 18.9683 27.1903C19.4487 26.794 19.7909 26.1876 19.995 25.371C20.2712 24.2422 20.4814 23.2574 20.6255 22.4168C20.6735 22.1646 20.6975 21.9065 20.6975 21.6422C20.6975 20.5494 20.1271 20.003 18.9863 20.003C18.3137 20.003 17.7374 20.2011 17.257 20.5974C16.7887 20.9938 16.4524 21.6003 16.2483 22.4168C16.0321 23.2214 15.8159 24.2062 15.5998 25.371C15.5517 25.6111 15.5277 25.8633 15.5277 26.1275C15.5277 27.2324 16.1042 27.7848 17.257 27.7848Z" fill="white"/>
<path d="M24.893 30.1987C24.7609 30.1987 24.6588 30.1566 24.5868 30.0725C24.5267 29.9764 24.5088 29.8684 24.5328 29.7483L27.0186 18.0397C27.0426 17.9076 27.1086 17.7995 27.2167 17.7154C27.3248 17.6314 27.4389 17.5894 27.559 17.5894H32.3505C33.6835 17.5894 34.7522 17.8655 35.5568 18.4179C36.3735 18.9704 36.7818 19.7689 36.7818 20.8137C36.7818 21.1139 36.7458 21.4262 36.6737 21.7504C36.3735 23.1314 35.7671 24.1522 34.8544 24.8127C33.9537 25.4732 32.7168 25.8034 31.1436 25.8034H28.7118L27.8832 29.7483C27.8592 29.8804 27.7931 29.9884 27.6851 30.0725C27.577 30.1566 27.4629 30.1987 27.3429 30.1987H24.893ZM31.2697 23.3176C31.774 23.3176 32.2124 23.1794 32.5847 22.9032C32.9689 22.6271 33.2211 22.2308 33.3412 21.7144C33.3772 21.5102 33.3953 21.3301 33.3953 21.174C33.3953 20.8257 33.2932 20.5615 33.089 20.3814C32.8849 20.1892 32.5367 20.0932 32.0443 20.0932H29.8826L29.1982 23.3176H31.2697Z" fill="white"/>
</svg>
