<svg width="24" height="24" viewBox="0 0 24 24" fill="none" xmlns="http://www.w3.org/2000/svg">
<path fill-rule="evenodd" clip-rule="evenodd" d="M3.25526 11.4677C8.17556 9.33084 11.4511 7.91098 13.0959 7.22214C17.7772 5.26808 18.7612 4.93068 19.3939 4.91663C19.5344 4.91663 19.8437 4.94474 20.0546 5.11344C20.2233 5.25402 20.2655 5.43677 20.2936 5.57735C20.3217 5.71793 20.3498 6.01315 20.3217 6.23808C20.0686 8.9091 18.9721 15.3898 18.4098 18.3701C18.1708 19.6354 17.7069 20.0571 17.257 20.0993C16.273 20.1836 15.5279 19.4526 14.586 18.8341C13.0959 17.8641 12.2664 17.2596 10.8185 16.3036C9.14557 15.2071 10.228 14.6026 11.184 13.6185C11.437 13.3655 15.7528 9.42925 15.8372 9.0778C15.8512 9.03562 15.8512 8.86693 15.7528 8.78258C15.6544 8.69823 15.5138 8.72635 15.4014 8.75446C15.2467 8.78258 12.885 10.3571 8.28803 13.4639C7.61324 13.9278 7.00875 14.1527 6.46049 14.1387C5.85599 14.1246 4.70323 13.8013 3.83164 13.5201C2.77729 13.1827 1.93381 13 2.0041 12.4095C2.04627 12.1003 2.46801 11.791 3.25526 11.4677Z" fill="#509FDA"/>
</svg>
